#!OML:ASF F:\VICON\USERDATA\INSTALL\Justin_Nancy\Justin_Nancy.ASF
:FULLY-SPECIFIED
:DEGREES
395
root -8.10744 17.7091 8.23173 164.142 -88.3725 -163.786
lowerback 5.69488 -1.08425 -1.05837
upperback 0.919412 -1.48303 2.96217
thorax -2.13986 -0.744572 3.76278
lowerneck -15.7646 -4.21228 -9.9086
upperneck 24.7645 -5.07328 5.24697
head 11.0051 -2.76206 2.82342
rclavicle -3.57812e-015 -2.38542e-015
rhumerus -33.5337 -15.7905 -77.069
rradius 27.546
rwrist 10.2193
rhand -14.7254 11.4046
rfingers 7.12502
rthumb 11.4295 -18.2639
lclavicle -3.57812e-015 -2.38542e-015
lhumerus -27.6013 12.0115 85.0325
lradius 21.9484
lwrist -12.4981
lhand -15.3802 25.6851
lfingers 7.12502
lthumb 10.798 55.3875
rfemur -14.4531 4.96877 25.0398
rtibia 18.3114
rfoot -2.69427 -6.65752
rtoes 31.454
lfemur -6.19704 0.888194 -19.224
ltibia 52.5243
lfoot 26.0126 -18.9906
ltoes 3.54987
396
root -8.24312 17.7315 8.21928 142.798 -87.8983 -142.741
lowerback 6.11217 -0.87573 -0.285691
upperback 0.907717 -1.15545 3.05065
thorax -2.4224 -0.585755 3.40444
lowerneck -15.623 -4.18629 -9.32409
upperneck 24.9205 -5.17958 5.0608
head 11.0199 -2.78584 2.64432
rclavicle -1.15295e-014 7.95139e-015
rhumerus -33.4714 -15.6719 -77.2286
rradius 27.4539
rwrist 9.80456
rhand -14.7934 11.6278
rfingers 7.12502
rthumb 11.364 -18.0443
lclavicle -1.15295e-014 7.95139e-015
lhumerus -27.8855 9.93014 85.4082
lradius 22.1734
lwrist -11.3888
lhand -15.5041 26.5776
lfingers 7.12502
lthumb 10.6785 56.2863
rfemur -12.9272 4.885 26.0412
rtibia 17.0828
rfoot -2.63855 -6.46646
rtoes 32.2023
lfemur -7.43016 1.42199 -18.0662
ltibia 54.8126
lfoot 25.6922 -17.9608
ltoes 2.31616
397
root -8.37838 17.7407 8.20454 136.914 -87.4522 -137.106
lowerback 6.45102 -0.481135 0.278466
upperback 0.898595 -0.58962 2.78685
thorax -2.66379 -0.306335 2.77197
lowerneck -15.2698 -4.34987 -8.37285
upperneck 24.7827 -5.70863 5.07146
head 10.9088 -2.9415 2.41454
rclavicle 5.46658e-016 -1.74931e-014
rhumerus -33.689 -15.8583 -77.69
rradius 27.6797
rwrist 9.50987
rhand -15.0261 11.401
rfingers 7.12502
rthumb 11.1395 -18.2834
lclavicle 5.46658e-016 -1.74931e-014
lhumerus -27.9952 8.51552 85.2784
lradius 22.0818
lwrist -11.7268
lhand -15.2268 26.7827
lfingers 7.12502
lthumb 10.946 56.4773
rfemur -11.5451 4.85674 26.6833
rtibia 15.9444
rfoot -2.50793 -6.26483
rtoes 31.6954
lfemur -8.65093 1.79997 -17.4097
ltibia 56.9598
lfoot 24.2739 -16.0891
ltoes 1.22908
398
root -8.5111 17.7469 8.19686 134.671 -87.2108 -135.042
lowerback 6.65895 -0.0211876 0.848596
upperback 0.969431 0.0584853 2.36613
thorax -2.73513 0.0112196 1.95948
lowerneck -15.0868 -4.71206 -7.50719
upperneck 24.5411 -6.52832 5.32787
head 10.8224 -3.20441 2.24418
rclavicle -7.30534e-015 2.54444e-014
rhumerus -33.8704 -16.9919 -77.8079
rradius 27.8789
rwrist 10.8491
rhand -14.2867 11.4101
rfingers 7.12502
rthumb 11.8527 -18.2345
lclavicle -7.30534e-015 2.54444e-014
lhumerus -27.7734 7.81029 84.9065
lradius 21.8615
lwrist -13.1818
lhand -14.5324 26.3697
lfingers 7.12502
lthumb 11.6157 56.0277
rfemur -10.3367 4.97591 27.021
rtibia 15.0016
rfoot -2.46001 -6.21384
rtoes 30.9971
lfemur -9.89887 2.2772 -17.0614
ltibia 58.9612
lfoot 22.4932 -14.4779
ltoes 1.67933
399
root -8.63843 17.7497 8.19032 131.077 -87.1006 -131.528
lowerback 6.74079 0.288482 1.37814
upperback 1.02856 0.503296 2.09234
thorax -2.72488 0.22713 1.33876
lowerneck -14.9914 -4.99948 -7.00353
upperneck 24.3843 -7.0873 5.40414
head 10.77 -3.404 2.10692
rclavicle 2.23633e-016 -9.54166e-015
rhumerus -33.8642 -18.3896 -77.5381
rradius 27.8991
rwrist 12.5462
rhand -12.8332 11.9958
rfingers 7.12502
rthumb 13.254 -17.5628
lclavicle 2.23633e-016 -9.54166e-015
lhumerus -27.5845 6.94253 84.7214
lradius 21.7932
lwrist -14.2231
lhand -14.0366 25.9872
lfingers 7.12502
lthumb 12.0938 55.6177
rfemur -9.39832 4.5924 27.3897
rtibia 14.2487
rfoot -2.45945 -6.10715
rtoes 30.2509
lfemur -11.3352 2.80861 -16.7558
ltibia 60.899
lfoot 20.383 -13.5805
ltoes 2.48324
400
root -8.76461 17.7505 8.18882 127.317 -86.666 -127.844
lowerback 6.7436 0.422653 1.98541
upperback 1.13526 0.719932 2.22853
thorax -2.61329 0.327531 1.11929
lowerneck -14.9907 -5.03141 -7.31637
upperneck 24.3063 -7.06513 5.50499
head 10.7567 -3.40816 2.19874
rclavicle 5.11871e-015 -1.59028e-015
rhumerus -33.446 -18.7681 -77.3276
rradius 27.7852
rwrist 13.7379
rhand -12.3685 12.1874
rfingers 7.12502
rthumb 13.7019 -17.3416
lclavicle 5.11871e-015 -1.59028e-015
lhumerus -27.4752 6.75451 84.7698
lradius 21.826
lwrist -14.6935
lhand -13.6607 25.3644
lfingers 7.12502
lthumb 12.4562 54.9732
rfemur -8.54303 4.1702 28.0253
rtibia 13.6068
rfoot -2.42911 -5.8013
rtoes 29.4505
lfemur -12.737 3.63357 -16.1096
ltibia 62.7285
lfoot 18.1066 -13.3395
ltoes 2.80066
401
root -8.89378 17.7544 8.17415 127.684 -86.1508 -128.335
lowerback 6.84705 0.536531 2.2156
upperback 1.18593 0.889702 2.42488
thorax -2.61917 0.408052 1.17734
lowerneck -15.0626 -4.95295 -7.63637
upperneck 24.4745 -6.89888 5.58653
head 10.8366 -3.35202 2.30528
rclavicle 2.03754e-015 1.35174e-014
rhumerus -32.9683 -18.3772 -77.3889
rradius 27.5943
rwrist 14.0807
rhand -12.8812 12.2343
rfingers 7.12502
rthumb 13.2077 -17.3273
lclavicle 2.03754e-015 1.35174e-014
lhumerus -27.51 7.01491 84.6375
lradius 21.8157
lwrist -15.0327
lhand -13.4001 24.905
lfingers 7.12502
lthumb 12.7075 54.4984
rfemur -7.64731 4.31407 28.5538
rtibia 13.0794
rfoot -2.55622 -5.65824
rtoes 29.1956
lfemur -13.9858 4.55502 -15.5503
ltibia 64.3308
lfoot 15.7906 -12.8514
ltoes 0.904356
402
root -9.01763 17.7602 8.14326 128.831 -85.8132 -129.544
lowerback 6.92719 0.68461 2.06595
upperback 1.19879 1.07961 2.53096
thorax -2.65644 0.503158 1.35313
lowerneck -15.0646 -4.96868 -7.67451
upperneck 24.5914 -6.93631 5.63257
head 10.8866 -3.36902 2.32311
rclavicle 4.07509e-015 4.77083e-015
rhumerus -32.6356 -18.2351 -77.4232
rradius 27.5743
rwrist 13.6943
rhand -13.5504 12.3399
rfingers 7.12502
rthumb 12.5626 -17.2624
lclavicle 4.07509e-015 4.77083e-015
lhumerus -27.3195 5.46599 84.7257
lradius 21.8444
lwrist -13.458
lhand -13.5092 24.9939
lfingers 7.12502
lthumb 12.6023 54.5938
rfemur -6.82211 4.71454 28.9131
rtibia 12.6461
rfoot -2.89827 -5.63064
rtoes 29.4738
lfemur -15.2299 5.12775 -15.1525
ltibia 65.6416
lfoot 13.4725 -11.2637
ltoes -1.34785
403
root -9.13217 17.7647 8.12604 128.618 -85.6622 -129.143
lowerback 6.98178 0.693965 1.90999
upperback 0.998711 1.095 2.6631
thorax -2.8995 0.512123 1.57461
lowerneck -14.9435 -4.89038 -7.7672
upperneck 24.8249 -6.83394 5.61595
head 10.9446 -3.34107 2.35081
rclavicle -4.87022e-015 5.1684e-015
rhumerus -32.5389 -17.6302 -77.4998
rradius 27.6715
rwrist 12.9092
rhand -14.0723 12.887
rfingers 7.12502
rthumb 12.0594 -16.7455
lclavicle -4.87022e-015 5.1684e-015
lhumerus -27.9296 5.34733 84.8967
lradius 22.3137
lwrist -12.5635
lhand -14.2271 25.1643
lfingers 7.12502
lthumb 11.9101 54.8055
rfemur -6.41437 5.28394 29.0685
rtibia 12.4916
rfoot -3.41257 -5.73237
rtoes 30.3241
lfemur -16.7928 5.46028 -14.9262
ltibia 66.7566
lfoot 11.2907 -9.75504
ltoes -3.06859
404
root -9.26944 17.7713 8.15382 129.606 -85.382 -130.481
lowerback 7.43659 0.711439 2.16353
upperback 0.938587 1.15833 2.88496
thorax -3.2164 0.537116 1.65152
lowerneck -14.6367 -4.7753 -8.05696
upperneck 24.8811 -6.57818 5.42863
head 10.8898 -3.2835 2.37473
rclavicle -4.57205e-015 3.97569e-015
rhumerus -32.3786 -16.074 -77.667
rradius 27.7808
rwrist 11.5051
rhand -14.3336 12.9242
rfingers 7.12502
rthumb 11.8074 -16.723
lclavicle -4.57205e-015 3.97569e-015
lhumerus -28.6167 7.05875 84.9784
lradius 22.5796
lwrist -13.3181
lhand -14.5969 25.4682
lfingers 7.12502
lthumb 11.5535 55.1298
rfemur -5.50398 5.3582 29.0843
rtibia 12.459
rfoot -3.9528 -5.37899
rtoes 31.3522
lfemur -17.5499 5.5892 -15.0305
ltibia 67.597
lfoot 9.32791 -7.99368
ltoes -4.35285
405
root -9.37469 17.7651 8.15881 128.557 -85.3423 -129.332
lowerback 7.72348 0.736411 2.315
upperback 0.773484 1.22468 2.94671
thorax -3.54717 0.566189 1.62048
lowerneck -14.5073 -4.74376 -8.01535
upperneck 24.8615 -6.49519 5.21431
head 10.8415 -3.26961 2.30441
rclavicle 9.93923e-017 2.46493e-014
rhumerus -32.1343 -15.5558 -77.7163
rradius 27.9256
rwrist 11.5211
rhand -14.246 11.9955
rfingers 7.12502
rthumb 11.8919 -17.6468
lclavicle 9.93923e-017 2.46493e-014
lhumerus -28.9381 9.15881 84.589
lradius 22.5461
lwrist -15.026
lhand -14.682 25.1725
lfingers 7.12502
lthumb 11.4714 54.8386
rfemur -5.25917 5.13928 29.1832
rtibia 12.5394
rfoot -4.48996 -5.23316
rtoes 32.3413
lfemur -19.0225 5.75357 -14.9848
ltibia 68.3551
lfoot 7.88681 -6.45864
ltoes -1.86996
406
root -9.49733 17.7495 8.16868 128.864 -85.131 -129.61
lowerback 7.67665 0.807424 2.79706
upperback 0.80401 1.35146 2.78763
thorax -3.47553 0.62197 1.17222
lowerneck -14.4669 -4.74469 -7.77121
upperneck 24.7685 -6.55732 5.22232
head 10.7943 -3.27373 2.25798
rclavicle -7.60351e-015 1.63003e-014
rhumerus -31.8343 -15.7472 -77.8334
rradius 28.0972
rwrist 12.1012
rhand -14.1388 11.2628
rfingers 7.12502
rthumb 11.9953 -18.3735
lclavicle -7.60351e-015 1.63003e-014
lhumerus -28.9678 10.2317 84.0731
lradius 22.4991
lwrist -15.6875
lhand -14.9143 25.0934
lfingers 7.12502
lthumb 11.2474 54.7719
rfemur -5.00916 4.70391 29.4169
rtibia 12.7081
rfoot -5.19524 -5.26222
rtoes 32.9624
lfemur -20.2906 5.90407 -15.0893
ltibia 68.8739
lfoot 6.47104 -4.96952
ltoes -2.64466
407
root -9.62417 17.7315 8.15723 131.438 -84.9365 -132.223
lowerback 7.64561 0.962238 2.74871
upperback 0.822943 1.55004 2.69715
thorax -3.4374 0.722014 1.08525
lowerneck -14.415 -4.78479 -7.84718
upperneck 24.8114 -6.66854 5.44969
head 10.8197 -3.30778 2.3379
rclavicle -1.01877e-015 -1.11319e-014
rhumerus -31.5159 -16.1115 -77.7933
rradius 27.9327
rwrist 12.6117
rhand -14.2489 11.5121
rfingers 7.12502
rthumb 11.8891 -18.1304
lclavicle -1.01877e-015 -1.11319e-014
lhumerus -29.136 11.2329 83.5451
lradius 22.5162
lwrist -16.4894
lhand -14.4883 24.8705
lfingers 7.12502
lthumb 11.6582 54.5262
rfemur -4.76885 4.5025 29.585
rtibia 13.1989
rfoot -6.86381 -5.61294
rtoes 37.3602
lfemur -21.3054 6.16762 -15.2458
ltibia 69.1835
lfoot 4.9847 -4.37815
ltoes -5.2271
